<svg width="1000" height="1000" color = "black" xmlns="http://www.w3.org/2000/svg" >
  
  <!-- Pescoço -->
  <ellipse rx="85" ry="60" cx="490" cy="440" style="fill:orange;stroke:black;stroke-width:2" /> 
  
  <!-- Rabo -->
  <rect width="200" height="40" x="415" y="520" rx="50" ry="100" fill="orange " style="fill:orange;stroke:black;stroke-width:2" transform="rotate(65 450 675)" />
  <rect width="100" height="55" x="610" y="700" rx="50" ry="100" fill="orange " style="fill:orange;stroke:black;stroke-width:2" transform="rotate(5 450 675)" />
  <rect width="90" height="65" x="640" y="710" rx="50" ry="100" fill="orange " style="fill:orange;stroke:black;stroke-width:2" transform="rotate(0 450 675)" />

    <!-- Pintas -->
    <ellipse rx="12" ry="0.5" cx="705" cy="730" style="fill:black;stroke:black;stroke-width:2" />
    <ellipse rx="12" ry="0.5" cx="708" cy="740" style="fill:black;stroke:black;stroke-width:2" />
    <ellipse rx="12" ry="0.5" cx="708" cy="750" style="fill:black;stroke:black;stroke-width:2" /> 

  <!-- Perna Esquerda -->
  <rect width="52" height="160" x="410" y="605" rx="40" ry="90" fill="orange " style="fill:orange;stroke:black;stroke-width:2" transform="rotate(-12 415 605)" />

  <!-- Perna Direita -->
  <rect width="52" height="190" x="490" y="595" rx="40" ry="90" fill="orange " style="fill:orange;stroke:black;stroke-width:2" transform="rotate(-8 490 595)" />
  
  <!-- Corpo -->
  <ellipse rx="120" ry="110" cx="480" cy="535" style="fill:orange;stroke:black;stroke-width:2" />as

  <!-- Pintas -->
  <ellipse rx="20" ry="1" cx="600" cy="555" style="fill:black;stroke:black;stroke-width:2" transform="rotate(0 526 218)"/>
  
  <!-- Pé Esquerdo -->
  <rect width="150" height="58" x="340" y="730" rx="90" ry="50" fill="orange " style="fill:orange;stroke:black;stroke-width:2" />

  <!-- Pé Direito -->
  <rect width="150" height="58" x="425" y="745" rx="90" ry="50" fill="orange " style="fill:orange;stroke:black;stroke-width:2" />

  <!-- Braço Esquerdo-->
  <ellipse rx="45" ry="35" cx="400" cy="505" style="fill:orange;stroke:black;stroke-width:2" />

  <!-- Braço Direito-->
  <ellipse rx="45" ry="35" cx="600" cy="505" style="fill:orange;stroke:black;stroke-width:2" />

  <!-- Cabeça -->
  <ellipse rx="120" ry="100" cx="500" cy="350" style="fill:orange;stroke:black;stroke-width:2" /> 

    <ellipse rx="14" ry="0.5" cx="615" cy="675" style="fill:black;stroke:black;stroke-width:2" transform="rotate(64 615 675)" />
    <ellipse rx="9" ry="0.5" cx="608" cy="675" style="fill:black;stroke:black;stroke-width:2" transform="rotate(64 608 675)" />

    <ellipse rx="14" ry="0.5" cx="590" cy="625" style="fill:black;stroke:black;stroke-width:2" transform="rotate(64 590 625)" />
    <ellipse rx="9" ry="0.5" cx="582" cy="625" style="fill:black;stroke:black;stroke-width:2" transform="rotate(64 582 625)" />
    
  
    <!-- Orelha Esquerda -->
  <rect width="80" height="120" x="615" y="250" rx="150" ry="500" fill="orange " style="fill:orange;stroke:black;stroke-width:2" transform="rotate(-30 450 675)"/>
  <rect width="60" height="120" x="383" y="225" rx="150" ry="100" fill="orange " style="fill:#D37222FF;stroke:black;stroke-width:2" transform="rotate(-29 383 225)"/>
    <ellipse rx="15" ry="1" cx="407" cy="227" style="fill:black;stroke:black;stroke-width:2" transform="rotate(90 407 227)" />
    <ellipse rx="17" ry="1" cx="414" cy="227" style="fill:black;stroke:black;stroke-width:2" transform="rotate(75 414 227)" />
    <ellipse rx="17" ry="1" cx="421" cy="225" style="fill:black;stroke:black;stroke-width:2" transform="rotate(60 421 225)" />
    <ellipse rx="15" ry="1" cx="427" cy="220" style="fill:black;stroke:black;stroke-width:2" transform="rotate(46 427 220)" />

  <!-- Orelha Direita -->
  <rect width="80" height="120" x="725" y="320" rx="150" ry="500" fill="orange " style="fill:orange;stroke:black;stroke-width:2" transform="rotate(-35 450 675)"/>
  <rect width="60" height="120" x="475" y="222" rx="150" ry="100" fill="orange " style="fill:#D37222FF;stroke:black;stroke-width:2" transform="rotate(-29 475 222)"/>
    <ellipse rx="15" ry="1" cx="503" cy="222" style="fill:black;stroke:black;stroke-width:2" transform="rotate(90 503 222)" />
    <ellipse rx="17" ry="1" cx="511" cy="223" style="fill:black;stroke:black;stroke-width:2" transform="rotate(75 511 223)" />
    <ellipse rx="17" ry="1" cx="519" cy="221" style="fill:black;stroke:black;stroke-width:2" transform="rotate(60 519 221)" />
    <ellipse rx="15" ry="1" cx="526" cy="218" style="fill:black;stroke:black;stroke-width:2" transform="rotate(49 526 218)" />

  <!-- MASCARAS -->

    <!-- Pescoço Masc -->
    <ellipse rx="83" ry="58" cx="490" cy="440" style="fill:orange;stroke:none;stroke-width:2" /> 

    <!-- Cabeça Masc -->
    <ellipse rx="118" ry="98" cx="500" cy="350" style="fill:orange;stroke:none;stroke-width:2" /> 
    <ellipse rx="30" ry="60" cx="572" cy="335" style="fill:orange;stroke:none;stroke-width:2" /> 

    <!-- Perna Masc -->
    <rect width="48" height="158" x="413" y="605" rx="40" ry="90" fill="orange " style="fill:orange;stroke:none;stroke-width:2" transform="rotate(-12 413 605)" />
    <rect width="48" height="188" x="490" y="595" rx="40" ry="90" fill="orange " style="fill:orange;stroke:none;stroke-width:2" transform="rotate(-8 490 595)" />
    

  <!-- Cabeça -->
  
  <ellipse rx="120" ry="100" cx="500" cy="350" style="fill:orange;stroke:black;stroke-width:2" /> 

  <!-- OLhos -->   
  <ellipse rx="29.55" ry="55" cx="474" cy="320" fill = "orange" stroke = "black" stroke-width = "1" /> 
  <polygon points="
  479.6,378.75 472.6,378.75 469.8,378.75 464.2,376.25 
  457.2,370.0 451.6,360.0 448.8,352.5 447.4,346.25 
  499.2,348.75 495.0,362.5 488.0,372.5 481.0,377.5 
  468.4,378.75 464.2,376.25" fill="white" stroke="black" stroke-width="1"/>
  <ellipse rx="11" ry="4" cx="465" cy="350.7" fill="black"/>
  
  <g transform ="translate(-15,1)">
    <!-- Olho Direito -->
    <ellipse rx="29.55" ry="55" cx="529" cy="318"
    fill = "orange" stroke = "black" stroke-width = "1" />
    <polygon points=" 534.6,378.75 527.6,378.75 524.8,378.75 519.2,376.25 
    512.2,370.0 506.6,360.0 503.8,352.5 502.4,346.25 
    554.2,348.75 550.0,362.5 543.0,372.5 536.0,377.5 
    523.4,378.75 519.2,376.25
    " fill="white" stroke="black" stroke-width="1"/>
    <ellipse rx="11" ry="4" cx="525" cy="351" fill="black"/>
  </g>

 <!-- Bigode -->
  <rect width="55" height="30" x="505" y="369" rx="30" ry="30" fill="beige" transform="rotate(25 505 369)" />

  <rect width="55" height="30" x="445" y="392" rx="30" ry="30" fill="beige" transform="rotate(-25 445 392)" />

  <!-- Nariz -->
 <ellipse rx="15" ry="10" cx="500" cy="380" fill = "pink" stroke = "black" stroke-width = "1" /> 


</svg>
