<svg width="1500" height="1500" color = "black" xmlns="http://www.w3.org/2000/svg">
  <path d="M12 21s-6-4.35-9-8.28C-1 6.72 4.24 0 12 6.28 19.76 0 25 6.72 21 12.72 18 16.65 12 21 12 21z" fill="red" width = "1000" height = "1000"/>

  <g transform="translate(545, 30) scale(0.7)">
    
    <rect x="400" y="500" width="300" height="150" fill="#FFF69Eff" transform = "rotate(85,550,580)" stroke-width = "3" stroke="black" />
    <!-- garganta -->
    
    <rect x="650" y="800" width="300" height="80" stroke="black" stroke-width = "3" fill="#FFF69Eff"  transform = "rotate(100,650,800)" />
    <rect x="700" y="800" width="300" height="80" stroke="black"  stroke-width = "3" fill="#FFF69Eff"  transform = "rotate(100,700,800)" />
    <!-- canela esquerda -->
    
    <circle cx="580" cy="750" r="85" stroke-width="3" fill="#FFF69Eff"  stroke="black"  />
    <!-- barriga -->
    <rect x="490" y="650" width="145" height="85" fill="#FFF69Eff" transform = "rotate(-1,490,650)"   />
    <!-- barriga por dentro -->
    <rect x="900" y="800" width="300" height="90" stroke="black"  stroke-width = "3" fill="#FFF69Eff"  transform = "rotate(85,900,800)" />
    <rect x="950" y="800" width="300" height="90" stroke="black"  stroke-width = "3" fill="#FFF69Eff"  transform = "rotate(85,950,800)" />
    <!-- canela direita -->
    
    
    
    <ellipse  rx="130" ry="60" cx="550" cy="1100" fill="#FFF69Eff" stroke="black" stroke-width = "3"  transform =  "rotate(200,550,1100)" />
    <ellipse  rx="130" ry="60" cx="890" cy="1100" fill="#FFF69Eff" stroke="black" stroke-width = "3"  transform =  "rotate(200,890,1100)" />
    <!-- Os pes -->
    
    
    
    <rect x="400" y="520" width="250" height="110" transform = "rotate(85,550,580)" stroke-width="5" rx="40" ry="25px" />
    <!-- garganta de dentro -->
    
    
    <ellipse  rx="110" ry="90" cx="790" cy="690" fill="#FFF69Eff" stroke="black" stroke-width = "3" transform =  "rotate(35,790,690)" />
    
    <!-- bunda -->
    <ellipse  rx="70" ry="29" cx="670" cy="720" fill="#FFF69Eff" stroke="black" stroke-width = "3" transform =  "rotate(-110,670,720)"  />
    <!-- barriga parte de cima -->
    <ellipse  rx="100" ry="50" cx="900" cy="780" fill="#FFF69Eff" stroke="black" stroke-width = "3"  transform =  "rotate(85,900,780)" />
    <!-- comeco da canela direita -->
    
    <ellipse  rx="150" ry="60" cx="780" cy="790" fill="#FFF69Eff"  transform =  "rotate(180,780,790)" />
    
    <circle cx="490" cy="1080" r="90" stroke-width="3" stroke="black" fill="#FFF69Eff" />
    <circle cx="550" cy="1100" r="85" stroke-width="3"  stroke="black"  fill="#FFF69Eff" />
    <!-- pès esquerdo -->
    
    <circle cx="790" cy="1070" r="90" stroke-width="3" stroke="black" fill="#FFF69Eff" />
    <circle cx="850" cy="1100" r="85" stroke-width="3"  stroke="black"  fill="#FFF69Eff" />  
    <!-- pes direito -->
    <rect x="700" y="800" width="300" height="80"  fill="#FFF69Eff"  transform = "rotate(100,700,800)" />
    
    <rect x="950" y="800" width="300" height="90" fill="#FFF69Eff"  transform = "rotate(85,950,800)" />
    <!-- canela direita -->
    <rect x="640" y="695" width="145" height="85" fill="#FFF69Eff" transform = "rotate(-1,640,695)"   />
    <!-- barriga por dentro -->
    
    <ellipse  rx="45" ry="26" cx="730" cy="740" fill="black"  transform =  "rotate(110,730,740)" />
    
    
    <!-- pinta -->
    <ellipse  rx="75" ry="58" cx="860" cy="820" fill="#FFF69Eff"  stroke="black" stroke-width = "3"  transform =  "rotate(110,860,820)" />
    
    <rect x="830" y="1090" width="145" height="80" fill="#FFF69Eff" transform = "rotate(-1,830,1090)"   />
    <!-- pe por dentro -->
    <rect x="500" y="1090" width="145" height="80" fill="#FFF69Eff" transform = "rotate(-1,500,1090)"   />
    <!-- pe por dentro -->
    <rect x="800" y="760" width="145" height="100" fill="#FFF69Eff" transform = "rotate(-1,800,760)"   />
    <!-- pe por dentro -->
    <rect x="800" y="730" width="145" height="100" fill="#FFF69Eff" transform = "rotate(-1,800,730)"   />
    <!-- pe por dentro -->
    
  </g>
  <!-- ODDY CABECA-->
  
  <!-- ORELHAS -->
  <rect width="30" height="150" x="820" y="155" rx="250" ry="20" fill="brown" transform="rotate(-20, 645, 25)" stroke = "black" stroke-width = "3"/>
  <rect width="30" height="150" x="915" y="-115" rx="250" ry="20" fill="brown" transform="rotate(20, 375, 135)" stroke = "black" stroke-width = "3"/>
  <ellipse rx="40" ry="60" cx="972" cy="342" fill = "brown" stroke = "black" stroke-width = "3" transform="rotate(-25, 500, 150)" />
  <ellipse rx="40" ry="60" cx="800" cy="-20" fill = "brown" stroke = "black" stroke-width = "3" transform="rotate(25, 500, 150)" />
  
  <!-- CABECA -->
  <ellipse rx="20" ry="25" cx="823" cy="320" fill = "#FFF69eff" stroke = "black" stroke-width = "3" />
  <ellipse rx="20" ry="25" cx="1022" cy="320" fill = "#FFF69eff" stroke = "black" stroke-width = "3" />
  <ellipse rx="100" ry="73" cx="922" cy="345" fill = "#FFF69eff" stroke = "black" stroke-width = "3"  />
  
  <!-- OLHOS -->
  <ellipse rx="50" ry="80" cx="960" cy="270" fill = "white" stroke = "black" stroke-width = "3" />
  <ellipse rx="50" ry="80" cx="885" cy="270" fill = "white" stroke = "black" stroke-width = "3" />
  <ellipse rx="37" ry="25" cx="925" cy="348" fill = "black" stroke = "black" stroke-width = "3" />
  <ellipse rx="5" ry="10" cx="910" cy="300" fill = "black" stroke = "black" stroke-width = "3" />
  
  <!-- NARIZ -->
  <ellipse rx="5" ry="10" cx="950" cy="300" fill = "black" stroke = "black" stroke-width = "3" />
  <ellipse rx="22" ry="13" cx="925" cy="343" fill = "white" stroke = "black" stroke-width = "3" />
  <g transform = "scale(0.8) translate(280, 100)">
  <!-- LINGUA -->
  <ellipse rx="100" ry="80" cx="800" cy="500" fill = "#FA203DFF" />
  <ellipse rx="100" ry="70" cx="850" cy="560" fill = "cornflowerblue" stroke = "black"  />

  <rect width="100" height="120" x="720" y="454" rx="50" ry="53" fill="#FA203DFF "/>

  </g>
</svg>