<svg width="1000" height="1000" color = "black" xmlns="http://www.w3.org/2000/svg" >

  <!-- Orelha Esquerda -->
  <rect width="80" height="120" x="410" y="200" rx="120" ry="500" fill="orange " style="fill:orange;stroke:orange;stroke-width:3" />
  <!-- Orelha Direita -->
  <rect width="80" height="120" x="500" y="200" rx="120" ry="500" fill="orange " style="fill:orange;stroke:orange;stroke-width:3" />
  
  <!-- Perna Esquerda -->
  <rect width="70" height="210" x="420" y="550" rx="50" ry="90" fill="orange " style="fill:orange;stroke:orange;stroke-width:3" />
  <!-- Perna Direita -->
  <rect width="70" height="210" x="500" y="550" rx="50" ry="100" fill="orange " style="fill:orange;stroke:orange;stroke-width:3" />

  <!-- Pé Esquerdo -->
  <rect width="120" height="50" x="365" y="730" rx="90" ry="50" fill="orange " style="fill:orange;stroke:orange;stroke-width:3" />
  <rect width="90" height="55" x="350" y="725" rx="90" ry="50" fill="orange " style="fill:orange;stroke:orange;stroke-width:3" />

  <!-- Pé Direito -->
  <rect width="120" height="50" x="500" y="730" rx="90" ry="50" fill="orange " style="fill:orange;stroke:orange;stroke-width:3" />
  <rect width="90" height="55" x="540" y="725" rx="90" ry="50" fill="orange " style="fill:orange;stroke:orange;stroke-width:3" />

  <!-- Rabo -->
  <rect width="200" height="40" x="245" y="600" rx="50" ry="100" fill="orange " style="fill:orange;stroke:orange;stroke-width:3" />

  <!-- Corpo -->
  <ellipse rx="130" ry="100" cx="500" cy="540" style="fill:orange;stroke:orange;stroke-width:3" />

  <!-- Braço Esquerdo-->
  <ellipse rx="55" ry="45" cx="365" cy="505" style="fill:orange;stroke:orange;stroke-width:3" />
  <rect width="90" height="65" x="265" y="430" rx="90" ry="50" fill="orange " style="fill:orange;stroke:orange;stroke-width:3" />
  <!-- Braço Direito-->
  <ellipse rx="55" ry="45" cx="630" cy="505" style="fill:orange;stroke:orange;stroke-width:3" />

  <!-- Cabeça -->
  <ellipse rx="120" ry="100" cx="500" cy="350" style="fill:orange;stroke:orange;stroke-width:3" /> 

  <!-- Pescoço -->
  <ellipse rx="100" ry="60" cx="500" cy="440" style="fill:orange;stroke:orange;stroke-width:3" /> 

  <ellipse rx="20" ry="25" cx="820" cy="320" fill = "#FFF69eff" stroke = "black" stroke-width = "3" />
  <ellipse rx="20" ry="25" cx="625" cy="320" fill = "#FFF69eff" stroke = "black" stroke-width = "3" />
  <!--orelha-->
  <rect width="30" height="150" x="730" y="-50" rx="250" ry="20" fill="brown" transform="rotate(20, 375, 135)" stroke = "black" stroke-width = "3"/>
  <ellipse rx="40" ry="60" cx="790" cy="260" fill = "brown" stroke = "black" stroke-width = "3" transform="rotate(-25, 500, 150)" />
  <rect width="30" height="150" x="630" y="95" rx="250" ry="20" fill="brown" transform="rotate(-20, 645, 25)" stroke = "black" stroke-width = "3"/>
  <ellipse rx="40" ry="60" cx="620" cy="68" fill = "brown" stroke = "black" stroke-width = "3" transform="rotate(25, 500, 150)" />


  <!-- ODDY CABECA-->
  <ellipse rx="100" ry="73" cx="722" cy="355" fill = "#FFF69eff" stroke = "black" stroke-width = "3"  />
  <ellipse rx="50" ry="80" cx="760" cy="270" fill = "white" stroke = "black" stroke-width = "3" />
  <ellipse rx="50" ry="80" cx="685" cy="270" fill = "white" stroke = "black" stroke-width = "3" />
  <ellipse rx="37" ry="25" cx="725" cy="348" fill = "black" stroke = "black" stroke-width = "3" />
  <ellipse rx="22" ry="13" cx="725" cy="343" fill = "white" stroke = "black" stroke-width = "3" />
  <ellipse rx="5" ry="10" cx="710" cy="300" fill = "black" stroke = "black" stroke-width = "3" />
  <ellipse rx="5" ry="10" cx="750" cy="300" fill = "black" stroke = "black" stroke-width = "3" />

  
</svg>
